<svg xmlns="http://www.w3.org/2000/svg" width="80" height="80" fill="none" viewBox="0 0 80 80">
  <path fill="#2F2E30" d="M80 40c0 22.091-17.909 40-40 40S0 62.091 0 40 17.909 0 40 0s40 17.909 40 40Zm-69.093 0c0 16.068 13.026 29.093 29.093 29.093 16.068 0 29.093-13.026 29.093-29.093S56.067 10.907 40 10.907 10.907 23.933 10.907 40Z" opacity=".3"/>
  <circle cx="40" cy="40" r="29" fill="#181818"/>
  <g clip-path="url(#a)">
    <path stroke="#F4F4F4" stroke-linecap="round" stroke-linejoin="round" stroke-width="2" d="M33.333 45a3.333 3.333 0 0 0-6.666 0v3.333a3.333 3.333 0 0 0 6.666 0V45Zm20 0a3.333 3.333 0 0 0-6.666 0v3.333a3.333 3.333 0 0 0 6.666 0V45Z"/>
    <path stroke="#F4F4F4" stroke-linecap="round" stroke-linejoin="round" stroke-width="2" d="M26.666 45v-5a13.334 13.334 0 0 1 26.667 0v5M50 51.666c0 1.327-1.054 2.598-2.929 3.536-1.875.938-4.419 1.465-7.071 1.465"/>
  </g>
  <defs>
    <clipPath id="a">
      <path fill="#fff" d="M20 20h40v40H20z"/>
    </clipPath>
  </defs>
</svg>
