<svg xmlns="http://www.w3.org/2000/svg" width="80" height="80" fill="none" viewBox="0 0 80 80">
  <path fill="#2F2E30" d="M80 40c0 22.091-17.909 40-40 40S0 62.091 0 40 17.909 0 40 0s40 17.909 40 40Zm-69.093 0c0 16.068 13.026 29.093 29.093 29.093 16.068 0 29.093-13.026 29.093-29.093S56.067 10.907 40 10.907 10.907 23.933 10.907 40Z" opacity=".3"/>
  <circle cx="40" cy="40" r="29" fill="#181818"/>
  <g clip-path="url(#a)">
    <path stroke="#FAFAFA" stroke-linecap="round" stroke-linejoin="round" stroke-width="2" d="M31.667 51.667a3.333 3.333 0 1 0 0-6.667 3.333 3.333 0 0 0 0 6.667Zm16.666 0a3.333 3.333 0 1 0 0-6.667 3.333 3.333 0 0 0 0 6.667Z"/>
    <path stroke="#FAFAFA" stroke-linecap="round" stroke-linejoin="round" stroke-width="2" d="M28.333 48.334H27a2 2 0 0 1-2-2v-4.667m-1.667-13.334h16.334a2 2 0 0 1 2 2v18m-6.667 0h10m6.667 0H53a2 2 0 0 0 2-2v-8m0 0H41.667m13.333 0-4.417-7.362a2 2 0 0 0-1.715-.97h-7.201"/>
    <path stroke="#FAFAFA" stroke-linecap="round" stroke-linejoin="round" stroke-width="2" d="M28 48h-1.333a2 2 0 0 1-2-2v-4.667M23 28h16.333a2 2 0 0 1 2 2v18M35 48h9.667M52 48h.667a2 2 0 0 0 2-2v-8m0 0H41.333m13.334 0-4.418-7.362a2 2 0 0 0-1.715-.971h-7.2M25 31.818h6.667m-9.849 3.637h6.667M25 39.09h6.667"/>
  </g>
  <defs>
    <clipPath id="a">
      <path fill="#fff" d="M20 20h40v40H20z"/>
    </clipPath>
  </defs>
</svg>
